<svg width="25" height="24" viewBox="0 0 25 24" fill="none" xmlns="http://www.w3.org/2000/svg">
<path d="M23.2844 12.0011L20.8444 9.22106L21.1844 5.54106L17.5744 4.72106L15.6844 1.54106L12.2844 3.00106L8.88442 1.54106L6.99442 4.72106L3.38442 5.53106L3.72442 9.21106L1.28442 12.0011L3.72442 14.7811L3.38442 18.4711L6.99442 19.2911L8.88442 22.4711L12.2844 21.0011L15.6844 22.4611L17.5744 19.2811L21.1844 18.4611L20.8444 14.7811L23.2844 12.0011ZM10.2844 17.0011L6.28442 13.0011L7.69442 11.5911L10.2844 14.1711L16.8744 7.58106L18.2844 9.00106L10.2844 17.0011Z" fill="url(#paint0_linear_138_10)"/>
<defs>
<linearGradient id="paint0_linear_138_10" x1="24.2107" y1="3.08327" x2="7.93613" y2="20.6663" gradientUnits="userSpaceOnUse">
<stop stop-color="#538BF0"/>
<stop offset="1" stop-color="#2DC7ED"/>
</linearGradient>
</defs>
</svg>
