<svg width="1170" height="952" viewBox="0 0 1170 952" fill="none" xmlns="http://www.w3.org/2000/svg">
<g id="componente">
<path id="line2_gradient" d="M1019 432V200" stroke="url(#paint0_linear_2303_53)" stroke-width="3"/>
<circle id="elipse_dashed" cx="1019" cy="696" r="148.5" stroke="url(#paint1_linear_2303_53)" stroke-width="3" stroke-dasharray="3 15"/>
<circle id="elipse_gradient" cx="337" cy="150" r="148.5" stroke="url(#paint2_linear_2303_53)" stroke-width="3"/>
<rect id="base1_ca" width="680.45" height="680.45" rx="107.589" transform="matrix(0.866025 -0.5 0.707107 0.707107 99 402.225)" fill="#424344"/>
<rect id="rect2_ca" width="165" height="230" rx="41.4766" transform="matrix(0.866025 -0.5 0.707107 0.707107 288 319.5)" fill="url(#paint3_linear_2303_53)"/>
<rect id="rect2_ca_2" width="30" height="305" rx="15" transform="matrix(0.866025 -0.5 0.707107 0.707107 824 307.225)" fill="#717274"/>
<rect id="rect2_ca_3" width="226" height="317" rx="41.4766" transform="matrix(0.866025 -0.5 0.707107 0.707107 471 545)" fill="url(#paint4_linear_2303_53)"/>
<rect id="line3_ca" width="21" height="149" rx="10.5" transform="matrix(0.866025 -0.5 0.707107 0.707107 352 320.5)" fill="#9EA0A3"/>
<rect id="line2_ca" width="21" height="76" rx="10.5" transform="matrix(0.866025 -0.5 0.707107 0.707107 395 298.5)" fill="#9EA0A3"/>
<rect id="line1_ca" width="6.00003" height="680" transform="matrix(0.866025 -0.5 0.707107 0.707107 592 120)" fill="#717274"/>
<rect id="line1_ca_2" width="39" height="680" transform="matrix(0.866025 -0.5 0.707107 0.707107 544 147.5)" fill="url(#paint5_linear_2303_53)"/>
<circle id="Ellipse 318" r="17.5" transform="matrix(-0.302932 0.953012 -0.998944 -0.0459518 711.783 165.482)" fill="#717274"/>
<circle id="Ellipse 321" r="17.5" transform="matrix(-0.302932 0.953012 -0.998944 -0.0459518 743.783 200.482)" fill="#717274"/>
<circle id="Ellipse 320" r="17.5" transform="matrix(-0.302932 0.953012 -0.998944 -0.0459518 680.783 132.482)" fill="#717274"/>
<circle id="Ellipse 319" r="18" transform="matrix(0.866025 -0.5 0.707107 0.707107 675.316 493.728)" fill="#9EA0A3"/>
<line id="Line 1" y1="-0.5" x2="463" y2="-0.5" transform="matrix(-0.866025 0.5 -0.707107 -0.707107 400.97 177)" stroke="url(#paint6_linear_2303_53)"/>
<line id="Line 2" y1="-0.5" x2="623" y2="-0.5" transform="matrix(0.707107 0.707107 -0.5 0.866025 0 409)" stroke="url(#paint7_linear_2303_53)"/>
<line id="Line 3" x1="440.736" y1="849.076" x2="505.736" y2="808.576" stroke="url(#paint8_linear_2303_53)"/>
<line id="Line 4" y1="-0.5" x2="453" y2="-0.5" transform="matrix(0.707107 0.707107 -0.5 0.866025 260 631)" stroke="url(#paint9_linear_2303_53)"/>
<line id="Line 5" y1="-0.5" x2="623" y2="-0.5" transform="matrix(0.866025 -0.5 0.707107 0.707107 580 950.5)" stroke="white"/>
<line id="Line 6" y1="-0.5" x2="60" y2="-0.5" transform="matrix(0.701015 0.713146 -0.50741 0.861705 1077.97 596.586)" stroke="white"/>
<path id="Polygon 5" d="M637.097 587.366L610.872 685.238L539.225 613.591L637.097 587.366Z" fill="#9EA0A3"/>
<path id="Polygon 6" d="M704.766 607.922L668.679 742.601L570.087 644.009L704.766 607.922Z" fill="#9EA0A3"/>
</g>
<defs>
<linearGradient id="paint0_linear_2303_53" x1="996" y1="451.542" x2="1042.86" y2="133.683" gradientUnits="userSpaceOnUse">
<stop stop-color="#9CB3D1" stop-opacity="0"/>
<stop offset="0.775603" stop-color="#1357B3"/>
</linearGradient>
<linearGradient id="paint1_linear_2303_53" x1="843.73" y1="-6353.97" x2="1263.69" y2="-6353.7" gradientUnits="userSpaceOnUse">
<stop stop-color="#9CB3D1" stop-opacity="0"/>
<stop offset="0.775603" stop-color="#1357B3"/>
</linearGradient>
<linearGradient id="paint2_linear_2303_53" x1="161.73" y1="-6899.97" x2="581.688" y2="-6899.7" gradientUnits="userSpaceOnUse">
<stop stop-color="#9CB3D1" stop-opacity="0"/>
<stop offset="0.775603" stop-color="#1357B3"/>
</linearGradient>
<linearGradient id="paint3_linear_2303_53" x1="204.286" y1="247.752" x2="196.236" y2="-29.6215" gradientUnits="userSpaceOnUse">
<stop stop-color="#5390E3"/>
<stop offset="1" stop-color="#1357B3"/>
</linearGradient>
<linearGradient id="paint4_linear_2303_53" x1="279.81" y1="341.466" x2="268.645" y2="-40.8221" gradientUnits="userSpaceOnUse">
<stop stop-color="#5390E3"/>
<stop offset="1" stop-color="#1357B3"/>
</linearGradient>
<linearGradient id="paint5_linear_2303_53" x1="48.2858" y1="732.483" x2="-214.973" y2="7.30262" gradientUnits="userSpaceOnUse">
<stop stop-color="#5390E3"/>
<stop offset="1" stop-color="#1357B3"/>
</linearGradient>
<linearGradient id="paint6_linear_2303_53" x1="-39" y1="-22.9999" x2="557.5" y2="152.5" gradientUnits="userSpaceOnUse">
<stop stop-color="#9CB3D1" stop-opacity="0"/>
<stop offset="0.775603" stop-color="#1357B3"/>
</linearGradient>
<linearGradient id="paint7_linear_2303_53" x1="771.333" y1="1.07718" x2="771.333" y2="-0.129805" gradientUnits="userSpaceOnUse">
<stop stop-color="#5390E3"/>
<stop offset="1" stop-color="#1357B3"/>
</linearGradient>
<linearGradient id="paint8_linear_2303_53" x1="522.046" y1="800.271" x2="521.407" y2="799.247" gradientUnits="userSpaceOnUse">
<stop stop-color="#5390E3"/>
<stop offset="1" stop-color="#1357B3"/>
</linearGradient>
<linearGradient id="paint9_linear_2303_53" x1="646.5" y1="-85.9993" x2="22.5012" y2="69.0043" gradientUnits="userSpaceOnUse">
<stop stop-color="white"/>
<stop offset="1"/>
</linearGradient>
</defs>
</svg>
