<svg width="26" height="26" viewBox="0 0 26 26" fill="none" xmlns="http://www.w3.org/2000/svg">
<g clip-path="url(#clip0_113_12)">
<path d="M18.2585 17.7191L18.2582 17.7194L13.5505 22.392L13.5502 22.3922L13.198 22.0374C12.8733 22.3601 12.3489 22.3601 12.0242 22.0374L18.2585 17.7191ZM18.2585 17.7191C19.0689 16.9135 18.5 15.5286 17.3557 15.5286H14.6731L18.2585 17.7191ZM21.2901 5.88389L21.2902 5.88407C21.3664 5.96027 21.4221 6.05306 21.4541 6.15356H16.2356V0.933839C16.339 0.965752 16.4331 1.02208 16.51 1.09891L21.2901 5.88389ZM13.6731 0.903564V7.04419C13.6731 7.96486 14.4243 8.71606 15.345 8.71606H21.4856V24.2317C21.4856 24.605 21.187 24.9036 20.8137 24.9036H4.40747C4.0342 24.9036 3.7356 24.605 3.7356 24.2317V1.57544C3.7356 1.20217 4.0342 0.903564 4.40747 0.903564H13.6731Z" stroke="url(#paint0_linear_113_12)"/>
</g>
<defs>
<linearGradient id="paint0_linear_113_12" x1="22.7751" y1="2.24567" x2="3.91956" y2="16.7811" gradientUnits="userSpaceOnUse">
<stop stop-color="#538BF0"/>
<stop offset="1" stop-color="#2DC7ED"/>
</linearGradient>
<clipPath id="clip0_113_12">
<rect width="25" height="25" fill="white" transform="translate(0.110596 0.403564)"/>
</clipPath>
</defs>
</svg>
