<svg width="1964" height="1964" viewBox="0 0 1964 1964" fill="none" xmlns="http://www.w3.org/2000/svg">
<g id="Frame 26">
<circle id="Ellipse 339" cx="1028" cy="968" r="390.5" transform="rotate(-57.2747 1028 968)" stroke="url(#paint0_linear_9_96)" stroke-width="3" stroke-linecap="round" stroke-dasharray="5 10"/>
<circle id="Ellipse 340" cx="1003.94" cy="959.938" r="617.363" transform="rotate(-55.7174 1003.94 959.938)" stroke="url(#paint1_linear_9_96)" stroke-width="3" stroke-linecap="round" stroke-dasharray="5 10"/>
<g id="Ellipse 341" filter="url(#filter0_d_9_96)">
<circle cx="640" cy="895" r="21" fill="url(#paint2_linear_9_96)"/>
</g>
<g id="Ellipse 342" filter="url(#filter1_d_9_96)">
<circle cx="1376" cy="1455" r="21" fill="url(#paint3_linear_9_96)"/>
</g>
<path id="Vector 248" d="M665.532 1101.96L799.876 1103.26" stroke="url(#paint4_linear_9_96)" stroke-width="3" stroke-linecap="round"/>
<circle id="Ellipse 343" cx="799.876" cy="1103.26" r="2.5" transform="rotate(45.5548 799.876 1103.26)" fill="url(#paint5_linear_9_96)" stroke="url(#paint6_linear_9_96)"/>
<path id="Vector 249" d="M1170.43 1393.95L1304.77 1395.25" stroke="url(#paint7_linear_9_96)" stroke-width="3" stroke-linecap="round"/>
<circle id="Ellipse 344" cx="1304.77" cy="1395.25" r="2.5" transform="rotate(45.5548 1304.77 1395.25)" fill="url(#paint8_linear_9_96)" stroke="url(#paint9_linear_9_96)"/>
<path id="Vector 250" d="M1033.73 540.522L1168.08 541.822" stroke="url(#paint10_linear_9_96)" stroke-width="3" stroke-linecap="round"/>
<circle id="Ellipse 345" cx="1168.08" cy="541.822" r="2.5" transform="rotate(45.5548 1168.08 541.822)" fill="url(#paint11_linear_9_96)" stroke="url(#paint12_linear_9_96)"/>
<path id="Vector 252" d="M123 825.873L257.344 827.174" stroke="url(#paint13_linear_9_96)" stroke-width="3" stroke-linecap="round"/>
<circle id="Ellipse 347" cx="257.344" cy="827.174" r="2.5" transform="rotate(45.5548 257.344 827.174)" fill="url(#paint14_linear_9_96)" stroke="url(#paint15_linear_9_96)"/>
<path id="Vector 251" d="M1661.9 955.331L1796.24 956.632" stroke="url(#paint16_linear_9_96)" stroke-width="3" stroke-linecap="round"/>
<circle id="Ellipse 346" cx="1796.24" cy="956.632" r="2.5" transform="rotate(45.5548 1796.24 956.632)" fill="url(#paint17_linear_9_96)" stroke="url(#paint18_linear_9_96)"/>
<g id="Vector 254">
<path d="M1153 1019H931.5L904 1076.5H1125.5L1153 1019Z" fill="url(#paint19_linear_9_96)"/>
<path d="M1072 844H1004L937.5 997.5H1011L1072 844Z" fill="url(#paint20_linear_9_96)"/>
<path d="M1153 1019H931.5L904 1076.5H1125.5L1153 1019Z" stroke="url(#paint21_linear_9_96)"/>
<path d="M1072 844H1004L937.5 997.5H1011L1072 844Z" stroke="url(#paint22_linear_9_96)"/>
</g>
<g id="cursor">
<path id="Vector 273" d="M1330.21 1592.73L1318 1535L1370.18 1566.08L1344.64 1571.64L1330.21 1592.73Z" fill="#2DC7ED" stroke="white" stroke-width="2"/>
<rect id="Rectangle 786" x="1382.5" y="1586.5" width="172" height="38" fill="#2DC7ED" stroke="white"/>
<text id="Leonardo Katsuki" fill="black" xml:space="preserve" style="white-space: pre" font-family="Ubuntu" font-size="18" letter-spacing="0em"><tspan x="1397.42" y="1612.19">Leonardo Katsuki</tspan></text>
</g>
<g id="Group 220">
<path id="Vector 240" d="M666 390H532L544.475 530.495L599.538 545.737L653.955 530.495L666 390Z" fill="#303030" fill-opacity="0.5"/>
<path id="Vector 241" d="M557.366 418.988H641.185L639.245 435.776H575.465L577.405 453.447H637.953L633.428 505.578L599.167 516.181L564.692 505.578L562.537 479.513H578.913L580.206 493.208L599.167 498.068L617.483 493.208L619.422 470.677H561.46L557.366 418.988Z" fill="#303030"/>
</g>
<g id="Group 222">
<path id="Vector 240_2" d="M1662.33 674H1528L1539.53 810.615L1595.83 827L1650.36 810.615L1662.33 674Z" fill="#303030" fill-opacity="0.5"/>
<path id="Vector 241_2" d="M1589.2 699.415H1575.72V768.395L1550.82 761.134V777.212L1589.2 788.622V699.415Z" fill="#303030"/>
<path id="Vector 242" d="M1643.4 699.415H1600.61V757.762L1626.54 753.354V766.579L1600.61 773.84V789.659L1637.43 779.805L1640.29 735.979L1613.58 739.091V714.974H1642.1L1643.4 699.415Z" fill="#303030"/>
</g>
<g id="Group 221">
<path id="Vector 240_3" d="M1368.88 349H1234L1245.57 485.835L1302.11 502.247L1356.86 485.835L1368.88 349Z" fill="#303030" fill-opacity="0.5"/>
<path id="Vector 241_3" d="M1342.76 378.661H1259.71L1261.14 395.272H1324.52L1323.03 412.214H1262.58L1264.13 428.77H1321.59L1319.71 450.182L1301.15 455.259L1282.69 450.182L1281.53 437.048H1264.9L1267.22 463.15L1301.15 472.587L1335.24 463.04L1342.76 378.661Z" fill="#303030"/>
</g>
<g id="Vector">
<path d="M499 1220C508.455 1220 517.818 1221.85 526.553 1225.44C535.289 1229.04 543.226 1234.3 549.912 1240.94C556.597 1247.58 561.901 1255.46 565.519 1264.14C569.138 1272.81 571 1282.11 571 1291.5C571 1310.46 563.414 1328.65 549.912 1342.06C536.409 1355.47 518.096 1363 499 1363C489.545 1363 480.182 1361.15 471.447 1357.56C462.711 1353.96 454.774 1348.7 448.088 1342.06C434.586 1328.65 427 1310.46 427 1291.5C427 1272.54 434.586 1254.35 448.088 1240.94C461.591 1227.53 479.904 1220 499 1220ZM484.6 1315.31C485.752 1319.17 485.608 1322.75 484.6 1326.03C484.6 1326.39 484.312 1326.75 484.168 1327.25C484.024 1327.25 483.88 1327.75 483.664 1328.11C482.872 1329.82 481.72 1331.47 480.352 1332.9C476.176 1337.47 470.2 1339.19 467.824 1337.76C465.088 1336.19 466.6 1329.75 471.352 1324.68C476.536 1319.24 484.024 1315.67 484.024 1315.67L484.6 1315.31ZM544.144 1250.6C540.904 1237.88 519.664 1233.73 499.648 1240.81C487.696 1245.02 474.736 1251.6 465.448 1260.25C454.432 1270.55 452.632 1279.49 453.352 1283.21C455.8 1296.36 474.088 1305.01 481.576 1311.38V1311.45C479.416 1312.52 463.288 1320.6 459.4 1328.89C455.512 1337.62 460.12 1343.91 463 1344.77C472.648 1347.34 482.368 1342.69 487.552 1334.9C492.592 1327.46 492.232 1317.81 490 1312.95C493.024 1312.24 496.552 1311.88 501.016 1312.38C513.688 1313.88 516.136 1321.67 515.632 1324.96C515.2 1328.25 512.536 1330.04 511.672 1330.61C510.808 1331.11 510.52 1331.33 510.592 1331.75C510.664 1332.33 511.096 1332.33 511.816 1332.18C512.896 1331.97 518.512 1329.54 518.728 1323.46C519.016 1315.74 511.6 1307.16 498.496 1307.37C493.096 1307.52 489.712 1308.02 487.264 1308.95L486.688 1308.3C478.552 1299.72 463.576 1293.65 464.224 1282.06C464.44 1277.84 465.88 1266.83 493.024 1253.39C515.2 1242.38 532.984 1245.38 536.08 1252.17C540.472 1261.68 526.576 1279.49 503.536 1282.06C494.752 1283.06 490.072 1279.63 488.92 1278.42C487.696 1277.2 487.552 1276.99 487.12 1277.2C486.328 1277.7 486.832 1278.84 487.12 1279.56C487.768 1281.35 490.648 1284.35 495.4 1286.07C499.648 1287.42 510.016 1288.21 522.472 1283.42C536.44 1278.06 547.384 1263.11 544.144 1250.6Z" fill="#303030" fill-opacity="0.5"/>
<path fill-rule="evenodd" clip-rule="evenodd" d="M544.144 1250.6C540.904 1237.88 519.664 1233.73 499.648 1240.81C487.696 1245.02 474.736 1251.6 465.448 1260.25C454.432 1270.55 452.632 1279.49 453.352 1283.21C455.8 1296.36 474.088 1305.01 481.576 1311.38V1311.45C479.416 1312.52 463.288 1320.6 459.4 1328.89C455.512 1337.62 460.12 1343.91 463 1344.77C472.648 1347.34 482.368 1342.69 487.552 1334.9C492.592 1327.46 492.232 1317.81 490 1312.95C493.024 1312.24 496.552 1311.88 501.016 1312.38C513.688 1313.88 516.136 1321.67 515.632 1324.96C515.2 1328.25 512.536 1330.04 511.672 1330.61C510.808 1331.11 510.52 1331.33 510.592 1331.75C510.664 1332.33 511.096 1332.33 511.816 1332.18C512.896 1331.97 518.512 1329.54 518.728 1323.46C519.016 1315.74 511.6 1307.16 498.496 1307.37C493.096 1307.52 489.712 1308.02 487.264 1308.95L486.688 1308.3C478.552 1299.72 463.576 1293.65 464.224 1282.06C464.44 1277.84 465.88 1266.83 493.024 1253.39C515.2 1242.38 532.984 1245.38 536.08 1252.17C540.472 1261.68 526.576 1279.49 503.536 1282.06C494.752 1283.06 490.072 1279.63 488.92 1278.42C487.696 1277.2 487.552 1276.99 487.12 1277.2C486.328 1277.7 486.832 1278.84 487.12 1279.56C487.768 1281.35 490.648 1284.35 495.4 1286.07C499.648 1287.42 510.016 1288.21 522.472 1283.42C536.44 1278.06 547.384 1263.11 544.144 1250.6ZM484.6 1326.03C485.608 1322.75 485.752 1319.17 484.6 1315.31L484.024 1315.67C484.024 1315.67 476.536 1319.24 471.352 1324.68C466.6 1329.75 465.088 1336.19 467.824 1337.76C470.2 1339.19 476.176 1337.47 480.352 1332.9C481.72 1331.47 482.872 1329.82 483.664 1328.11C483.88 1327.75 484.024 1327.25 484.168 1327.25C484.312 1326.75 484.6 1326.39 484.6 1326.03Z" fill="#303030"/>
</g>
<path id="Vector_2" d="M1539.83 1170C1529.22 1170 1518.71 1172.09 1508.9 1176.15C1499.09 1180.22 1490.18 1186.17 1482.68 1193.68C1467.52 1208.83 1459 1229.39 1459 1250.83C1459 1286.56 1482.2 1316.87 1514.29 1327.62C1518.33 1328.27 1519.63 1325.77 1519.63 1323.58C1519.63 1321.72 1519.63 1316.63 1519.63 1309.92C1497.23 1314.77 1492.47 1299.09 1492.47 1299.09C1488.75 1289.71 1483.49 1287.21 1483.49 1287.21C1476.14 1282.2 1484.06 1282.36 1484.06 1282.36C1492.14 1282.92 1496.43 1290.68 1496.43 1290.68C1503.46 1302.97 1515.34 1299.33 1519.95 1297.39C1520.68 1292.14 1522.78 1288.58 1525.04 1286.56C1507.1 1284.54 1488.26 1277.59 1488.26 1246.79C1488.26 1237.82 1491.33 1230.62 1496.59 1224.89C1495.78 1222.86 1492.95 1214.46 1497.4 1203.55C1497.4 1203.55 1504.19 1201.36 1519.63 1211.79C1526.01 1210.01 1532.96 1209.12 1539.83 1209.12C1546.7 1209.12 1553.66 1210.01 1560.04 1211.79C1575.48 1201.36 1582.27 1203.55 1582.27 1203.55C1586.72 1214.46 1583.89 1222.86 1583.08 1224.89C1588.33 1230.62 1591.4 1237.82 1591.4 1246.79C1591.4 1277.67 1572.49 1284.46 1554.46 1286.48C1557.37 1288.99 1560.04 1293.92 1560.04 1301.43C1560.04 1312.27 1560.04 1321 1560.04 1323.58C1560.04 1325.77 1561.34 1328.35 1565.46 1327.62C1597.55 1316.79 1620.67 1286.56 1620.67 1250.83C1620.67 1240.22 1618.58 1229.71 1614.51 1219.9C1610.45 1210.09 1604.5 1201.18 1596.99 1193.68C1589.49 1186.17 1580.57 1180.22 1570.77 1176.15C1560.96 1172.09 1550.45 1170 1539.83 1170Z" fill="#303030"/>
</g>
<defs>
<filter id="filter0_d_9_96" x="607" y="871" width="66" height="66" filterUnits="userSpaceOnUse" color-interpolation-filters="sRGB">
<feFlood flood-opacity="0" result="BackgroundImageFix"/>
<feColorMatrix in="SourceAlpha" type="matrix" values="0 0 0 0 0 0 0 0 0 0 0 0 0 0 0 0 0 0 127 0" result="hardAlpha"/>
<feMorphology radius="4" operator="erode" in="SourceAlpha" result="effect1_dropShadow_9_96"/>
<feOffset dy="9"/>
<feGaussianBlur stdDeviation="8"/>
<feColorMatrix type="matrix" values="0 0 0 0 0.176471 0 0 0 0 0.780392 0 0 0 0 0.929412 0 0 0 0.3 0"/>
<feBlend mode="normal" in2="BackgroundImageFix" result="effect1_dropShadow_9_96"/>
<feBlend mode="normal" in="SourceGraphic" in2="effect1_dropShadow_9_96" result="shape"/>
</filter>
<filter id="filter1_d_9_96" x="1343" y="1431" width="66" height="66" filterUnits="userSpaceOnUse" color-interpolation-filters="sRGB">
<feFlood flood-opacity="0" result="BackgroundImageFix"/>
<feColorMatrix in="SourceAlpha" type="matrix" values="0 0 0 0 0 0 0 0 0 0 0 0 0 0 0 0 0 0 127 0" result="hardAlpha"/>
<feMorphology radius="4" operator="erode" in="SourceAlpha" result="effect1_dropShadow_9_96"/>
<feOffset dy="9"/>
<feGaussianBlur stdDeviation="8"/>
<feColorMatrix type="matrix" values="0 0 0 0 0.176471 0 0 0 0 0.780392 0 0 0 0 0.929412 0 0 0 0.3 0"/>
<feBlend mode="normal" in2="BackgroundImageFix" result="effect1_dropShadow_9_96"/>
<feBlend mode="normal" in="SourceGraphic" in2="effect1_dropShadow_9_96" result="shape"/>
</filter>
<linearGradient id="paint0_linear_9_96" x1="1028" y1="576" x2="1028" y2="1360" gradientUnits="userSpaceOnUse">
<stop stop-color="#303030" stop-opacity="0"/>
<stop offset="1" stop-color="#303030"/>
</linearGradient>
<linearGradient id="paint1_linear_9_96" x1="1003.94" y1="341.075" x2="1003.94" y2="1578.8" gradientUnits="userSpaceOnUse">
<stop stop-color="#303030" stop-opacity="0"/>
<stop offset="1" stop-color="#303030"/>
</linearGradient>
<linearGradient id="paint2_linear_9_96" x1="662.768" y1="877.095" x2="630.025" y2="910.75" gradientUnits="userSpaceOnUse">
<stop stop-color="#538BF0"/>
<stop offset="1" stop-color="#2DC7ED"/>
</linearGradient>
<linearGradient id="paint3_linear_9_96" x1="1398.77" y1="1437.09" x2="1366.03" y2="1470.75" gradientUnits="userSpaceOnUse">
<stop stop-color="#538BF0"/>
<stop offset="1" stop-color="#2DC7ED"/>
</linearGradient>
<linearGradient id="paint4_linear_9_96" x1="797.679" y1="1111.02" x2="691.471" y2="1111.45" gradientUnits="userSpaceOnUse">
<stop stop-color="#538BF0"/>
<stop offset="1" stop-color="#2DC7ED" stop-opacity="0"/>
</linearGradient>
<linearGradient id="paint5_linear_9_96" x1="803.128" y1="1100.7" x2="798.451" y2="1105.51" gradientUnits="userSpaceOnUse">
<stop stop-color="#538BF0"/>
<stop offset="1" stop-color="#2DC7ED"/>
</linearGradient>
<linearGradient id="paint6_linear_9_96" x1="803.128" y1="1100.7" x2="798.451" y2="1105.51" gradientUnits="userSpaceOnUse">
<stop stop-color="#538BF0"/>
<stop offset="1" stop-color="#2DC7ED" stop-opacity="0"/>
</linearGradient>
<linearGradient id="paint7_linear_9_96" x1="1302.58" y1="1403.01" x2="1196.37" y2="1403.44" gradientUnits="userSpaceOnUse">
<stop stop-color="#538BF0"/>
<stop offset="1" stop-color="#2DC7ED" stop-opacity="0"/>
</linearGradient>
<linearGradient id="paint8_linear_9_96" x1="1308.03" y1="1392.69" x2="1303.35" y2="1397.5" gradientUnits="userSpaceOnUse">
<stop stop-color="#538BF0"/>
<stop offset="1" stop-color="#2DC7ED"/>
</linearGradient>
<linearGradient id="paint9_linear_9_96" x1="1308.03" y1="1392.69" x2="1303.35" y2="1397.5" gradientUnits="userSpaceOnUse">
<stop stop-color="#538BF0"/>
<stop offset="1" stop-color="#2DC7ED" stop-opacity="0"/>
</linearGradient>
<linearGradient id="paint10_linear_9_96" x1="1165.88" y1="549.58" x2="1059.67" y2="550.01" gradientUnits="userSpaceOnUse">
<stop stop-color="#538BF0"/>
<stop offset="1" stop-color="#2DC7ED" stop-opacity="0"/>
</linearGradient>
<linearGradient id="paint11_linear_9_96" x1="1171.33" y1="539.265" x2="1166.65" y2="544.072" gradientUnits="userSpaceOnUse">
<stop stop-color="#538BF0"/>
<stop offset="1" stop-color="#2DC7ED"/>
</linearGradient>
<linearGradient id="paint12_linear_9_96" x1="1171.33" y1="539.265" x2="1166.65" y2="544.072" gradientUnits="userSpaceOnUse">
<stop stop-color="#538BF0"/>
<stop offset="1" stop-color="#2DC7ED" stop-opacity="0"/>
</linearGradient>
<linearGradient id="paint13_linear_9_96" x1="255.148" y1="834.931" x2="148.94" y2="835.361" gradientUnits="userSpaceOnUse">
<stop stop-color="#538BF0"/>
<stop offset="1" stop-color="#2DC7ED" stop-opacity="0"/>
</linearGradient>
<linearGradient id="paint14_linear_9_96" x1="260.597" y1="824.616" x2="255.919" y2="829.424" gradientUnits="userSpaceOnUse">
<stop stop-color="#538BF0"/>
<stop offset="1" stop-color="#2DC7ED"/>
</linearGradient>
<linearGradient id="paint15_linear_9_96" x1="260.597" y1="824.616" x2="255.919" y2="829.424" gradientUnits="userSpaceOnUse">
<stop stop-color="#538BF0"/>
<stop offset="1" stop-color="#2DC7ED" stop-opacity="0"/>
</linearGradient>
<linearGradient id="paint16_linear_9_96" x1="1794.04" y1="964.389" x2="1687.84" y2="964.819" gradientUnits="userSpaceOnUse">
<stop stop-color="#538BF0"/>
<stop offset="1" stop-color="#2DC7ED" stop-opacity="0"/>
</linearGradient>
<linearGradient id="paint17_linear_9_96" x1="1799.49" y1="954.074" x2="1794.82" y2="958.882" gradientUnits="userSpaceOnUse">
<stop stop-color="#538BF0"/>
<stop offset="1" stop-color="#2DC7ED"/>
</linearGradient>
<linearGradient id="paint18_linear_9_96" x1="1799.49" y1="954.074" x2="1794.82" y2="958.882" gradientUnits="userSpaceOnUse">
<stop stop-color="#538BF0"/>
<stop offset="1" stop-color="#2DC7ED" stop-opacity="0"/>
</linearGradient>
<linearGradient id="paint19_linear_9_96" x1="1163.48" y1="861.132" x2="982.99" y2="1059.82" gradientUnits="userSpaceOnUse">
<stop stop-color="#538BF0"/>
<stop offset="1" stop-color="#2DC7ED" stop-opacity="0"/>
</linearGradient>
<linearGradient id="paint20_linear_9_96" x1="1163.48" y1="861.132" x2="982.99" y2="1059.82" gradientUnits="userSpaceOnUse">
<stop stop-color="#538BF0"/>
<stop offset="1" stop-color="#2DC7ED" stop-opacity="0"/>
</linearGradient>
<linearGradient id="paint21_linear_9_96" x1="1163.48" y1="861.132" x2="982.99" y2="1059.82" gradientUnits="userSpaceOnUse">
<stop stop-color="#538BF0"/>
<stop offset="1" stop-color="#2DC7ED"/>
</linearGradient>
<linearGradient id="paint22_linear_9_96" x1="1163.48" y1="861.132" x2="982.99" y2="1059.82" gradientUnits="userSpaceOnUse">
<stop stop-color="#538BF0"/>
<stop offset="1" stop-color="#2DC7ED"/>
</linearGradient>
</defs>
</svg>
