<svg width="1327" height="731" viewBox="0 0 1327 731" fill="none" xmlns="http://www.w3.org/2000/svg">
<g id="pageHero" clip-path="url(#clip0_2314_2)">
<path id="line2_gradient" d="M1123 327V95" stroke="url(#paint0_linear_2314_2)" stroke-width="3"/>
<circle id="elipse_dashed" cx="1123" cy="503" r="148.5" stroke="url(#paint1_linear_2314_2)" stroke-width="3" stroke-dasharray="3 15"/>
<circle id="elipse_gradient" cx="301" cy="177" r="148.5" stroke="url(#paint2_linear_2314_2)" stroke-width="3"/>
<g id="lineBlue">
<line id="Line 7" x1="463.769" y1="111.443" x2="42.231" y2="331.03" stroke="url(#paint3_linear_2314_2)"/>
<line id="Line 8" y1="-0.5" x2="623" y2="-0.5" transform="matrix(0.884234 0.467045 -0.222274 0.974984 42 331)" stroke="url(#paint4_linear_2314_2)"/>
<line id="Line 9" x1="592.753" y1="621.821" x2="647.753" y2="590.565" stroke="url(#paint5_linear_2314_2)"/>
</g>
<g id="lineWhite">
<line id="Line 5" y1="-0.5" x2="623" y2="-0.5" transform="matrix(0.884667 -0.466223 0.679306 0.733856 759 680.457)" stroke="white"/>
<path id="Line 4" d="M345.109 463.512L759 680" stroke="url(#paint6_linear_2314_2)"/>
<line id="Line 6" x1="1309.61" y1="390.752" x2="1274.71" y2="365.404" stroke="white"/>
</g>
<rect id="base1_ca" width="680.45" height="680.45" rx="107.589" transform="matrix(0.894427 -0.447214 0.894427 0.447214 130 331.307)" fill="#424344"/>
<g id="line1">
<rect id="line1_ca" width="20.9721" height="308" rx="10.4861" transform="matrix(0.894427 -0.447214 0.894427 0.447214 907 171.379)" fill="#9EA0A3"/>
</g>
<g id="line4">
<rect id="line4_ca" width="4.56467" height="680.404" transform="matrix(0.894427 -0.447214 0.894427 0.447214 633.467 79.4365)" fill="#9EA0A3"/>
</g>
<g id="line5">
<rect id="line5_ca" width="29.9579" height="680.409" transform="matrix(0.894427 -0.447214 0.894427 0.447214 606.771 92.9268)" fill="url(#paint7_linear_2314_2)"/>
</g>
<g id="circle1_ca">
<g id="Group 55">
<ellipse id="Ellipse 222" cx="808.495" cy="109.248" rx="16.4951" ry="8.24753" fill="#9EA0A3"/>
</g>
</g>
<g id="circle2_ca">
<g id="Group 55_2">
<ellipse id="Ellipse 222_2" cx="775.495" cy="93.2475" rx="16.4951" ry="8.24753" fill="#9EA0A3"/>
</g>
</g>
<g id="circle3_ca">
<g id="Group 55_3">
<ellipse id="Ellipse 222_3" cx="841.495" cy="125.248" rx="16.4951" ry="8.24753" fill="#9EA0A3"/>
</g>
</g>
<g id="image1_ca">
<rect id="rect3_ca" width="204.733" height="356.52" rx="41.4766" transform="matrix(0.894427 -0.447214 0.894427 0.447214 581 363.56)" fill="url(#paint8_linear_2314_2)"/>
<path id="triangle1_ca" d="M818.5 396.5L797 471.5L668.329 407.34L818.5 396.5Z" fill="#9EA0A3"/>
<path id="triangle2_ca" d="M932 418L866.076 505.848L745.904 445.939L932 418Z" fill="#9EA0A3"/>
<g id="circle4_ca">
<g id="Group 55_4">
<ellipse id="Ellipse 222_4" cx="775.495" cy="327.248" rx="16.4951" ry="8.24753" fill="#9EA0A3"/>
</g>
</g>
</g>
<g id="image2_ca">
<rect id="rect2_ca" width="127.652" height="222.292" rx="41.4766" transform="matrix(0.894427 -0.447214 0.894427 0.447214 389 227.088)" fill="url(#paint9_linear_2314_2)"/>
<rect id="line3_ca" width="11.0649" height="162.5" rx="5.53243" transform="matrix(0.894427 -0.447214 0.894427 0.447214 446.723 220.322)" fill="#9EA0A3"/>
<rect id="line2_ca" width="11.0649" height="89.1422" rx="5.53243" transform="matrix(0.894427 -0.447214 0.894427 0.447214 483.127 201.328)" fill="#9EA0A3"/>
</g>
</g>
<defs>
<linearGradient id="paint0_linear_2314_2" x1="1100" y1="346.542" x2="1146.86" y2="28.6832" gradientUnits="userSpaceOnUse">
<stop stop-color="#9CB3D1" stop-opacity="0"/>
<stop offset="0.775603" stop-color="#1357B3"/>
</linearGradient>
<linearGradient id="paint1_linear_2314_2" x1="896.5" y1="666.5" x2="1248" y2="427" gradientUnits="userSpaceOnUse">
<stop stop-color="#9CB3D1" stop-opacity="0"/>
<stop offset="0.0001" stop-color="#8098B8" stop-opacity="0"/>
<stop offset="1" stop-color="#1357B3"/>
</linearGradient>
<linearGradient id="paint2_linear_2314_2" x1="138" y1="205" x2="265.311" y2="240.498" gradientUnits="userSpaceOnUse">
<stop stop-opacity="0"/>
<stop offset="1" stop-color="#1357B3"/>
</linearGradient>
<linearGradient id="paint3_linear_2314_2" x1="509.671" y1="112.902" x2="-116.173" y2="231.266" gradientUnits="userSpaceOnUse">
<stop stop-color="#9CB3D1" stop-opacity="0"/>
<stop offset="0.775603" stop-color="#1357B3"/>
</linearGradient>
<linearGradient id="paint4_linear_2314_2" x1="771.333" y1="1.07718" x2="771.333" y2="-0.129805" gradientUnits="userSpaceOnUse">
<stop stop-color="#5390E3"/>
<stop offset="1" stop-color="#1357B3"/>
</linearGradient>
<linearGradient id="paint5_linear_2314_2" x1="661.627" y1="584.495" x2="661.031" y2="583.446" gradientUnits="userSpaceOnUse">
<stop stop-color="#5390E3"/>
<stop offset="1" stop-color="#1357B3"/>
</linearGradient>
<linearGradient id="paint6_linear_2314_2" x1="936.587" y1="679.707" x2="350.037" y2="680.498" gradientUnits="userSpaceOnUse">
<stop stop-color="white"/>
<stop offset="1"/>
</linearGradient>
<linearGradient id="paint7_linear_2314_2" x1="37.0907" y1="732.923" x2="-280.288" y2="61.7623" gradientUnits="userSpaceOnUse">
<stop stop-color="#5390E3"/>
<stop offset="1" stop-color="#1357B3"/>
</linearGradient>
<linearGradient id="paint8_linear_2314_2" x1="253.479" y1="384.036" x2="237.898" y2="-45.713" gradientUnits="userSpaceOnUse">
<stop stop-color="#5390E3"/>
<stop offset="1" stop-color="#1357B3"/>
</linearGradient>
<linearGradient id="paint9_linear_2314_2" x1="158.046" y1="239.449" x2="148.331" y2="-28.5023" gradientUnits="userSpaceOnUse">
<stop stop-color="#5390E3"/>
<stop offset="1" stop-color="#1357B3"/>
</linearGradient>
<clipPath id="clip0_2314_2">
<rect width="1327" height="731" fill="white"/>
</clipPath>
</defs>
</svg>
